<svg xmlns="http://www.w3.org/2000/svg" width="174" height="40" viewBox="0 0 174 40" fill="none"><path d="M30.3981 2C31.154 2.14291 31.9186 2.25163 32.6648 2.43838C38.3213 3.82629 42.5503 8.65284 43.2018 14.4438C43.6216 18.0859 42.6007 21.7478 40.357 24.6474C38.1132 27.547 34.8246 29.4545 31.1934 29.9625C30.6005 30.0437 30.0022 30.0794 29.4038 30.0694C29.0347 30.0694 28.8339 30.1808 28.6506 30.5017C27.1144 33.1968 25.5597 35.8823 24.0104 38.5679C23.9455 38.6801 23.878 38.7897 23.7543 38.9966V25.7137H24.2024C25.9251 25.7137 27.6495 25.7137 29.3757 25.7137C34.0975 25.7067 38.3046 21.9542 38.8342 17.2784C39.4349 11.9687 35.9406 7.3491 30.6603 6.48725C30.1988 6.41564 29.7323 6.37988 29.2653 6.38029C27.4414 6.36889 25.6176 6.3759 23.7412 6.3759V2H30.3981Z" fill="#E2504B"></path><path d="M20.5831 2V6.3759H15.0854C10.1128 6.3759 5.84084 10.2266 5.42171 15.0847C4.98329 20.1559 8.34334 24.6247 13.2984 25.5418C13.8722 25.6464 14.4539 25.7012 15.0371 25.7058C16.861 25.7268 18.6848 25.7137 20.5472 25.7137V30.0212C20.5261 30.0405 20.5156 30.0598 20.5051 30.0589C17.7527 30.0072 14.981 30.3368 12.2497 29.8073C6.42481 28.678 1.86525 23.7892 1.1173 17.8991C0.158044 10.3809 5.17882 3.53959 12.6355 2.20516C13.0634 2.12888 13.4939 2.06839 13.9227 2H20.5831Z" fill="#E2504B"></path><path d="M172.55 10.7463C171.964 12.1491 171.37 13.5572 170.797 14.9679C168.443 20.7276 166.09 26.4874 163.736 32.2471C163.678 32.3874 163.495 32.5706 163.368 32.5724C161.865 32.5951 160.361 32.5873 158.797 32.5873C158.851 32.4338 158.885 32.3163 158.931 32.205C159.747 30.2612 160.558 28.3157 161.386 26.3772C161.443 26.2626 161.472 26.1365 161.471 26.0088C161.47 25.881 161.439 25.7553 161.381 25.6416C159.21 20.8141 157.045 15.9838 154.887 11.1505C154.824 11.0076 154.767 10.8621 154.687 10.6674C156.015 10.6674 157.282 10.6674 158.55 10.6674C158.942 10.6674 159.427 10.5491 159.7 10.7341C159.974 10.9191 160.042 11.4135 160.188 11.7765C161.329 14.6406 162.469 17.5047 163.607 20.3688C163.648 20.4705 163.695 20.5704 163.775 20.758C164.126 19.8094 164.444 18.9405 164.762 18.0708C165.623 15.7246 166.49 13.3792 167.337 11.0278C167.438 10.7446 167.568 10.6569 167.863 10.6595C169.425 10.6736 170.988 10.6595 172.55 10.6595V10.7463Z" fill="black"></path><path d="M61.7877 12.3813V4.98755H66.1289V5.47064C66.1289 12.4357 66.1327 19.4012 66.1403 26.3673C66.1403 26.8276 66.0053 26.9258 65.5747 26.9144C64.4805 26.8846 63.3826 26.9039 62.2892 26.9039H61.7842V25.4134C61.0954 26.103 60.2451 26.6094 59.3106 26.8864C55.2 28.1358 50.0424 26.3077 49.0709 20.6456C48.7122 18.5519 48.9253 16.5187 49.9232 14.6205C51.2665 12.0657 53.4586 10.7943 56.2995 10.5927C57.7314 10.491 59.1309 10.6602 60.3979 11.3993C60.8696 11.6702 61.2931 12.0271 61.7877 12.3813ZM57.6262 23.3697C60.319 23.3697 61.956 21.6907 61.9569 18.9333C61.9569 16.1934 60.2497 14.4136 57.6192 14.4136C54.9264 14.4136 53.2437 16.1505 53.2455 18.9298C53.2473 21.5934 55.0009 23.3715 57.6262 23.3697Z" fill="black"></path><path d="M115.494 12.2519V10.9569H119.819V31.9868H115.508V25.3138C114.719 26.145 113.864 26.6763 112.867 26.9437C108.617 28.0835 103.739 26.1187 102.791 20.7021C102.343 18.1498 102.712 15.7343 104.262 13.6003C105.674 11.6557 107.662 10.7421 110.025 10.5895C111.2 10.5133 112.368 10.6027 113.445 11.1103C114.151 11.4374 114.809 11.8635 115.494 12.2519ZM115.67 18.5645C115.63 17.1617 115.108 15.6598 113.439 14.8962C111.769 14.1325 110.079 14.1851 108.558 15.324C107.036 16.4629 106.508 18.7635 107.231 20.724C108.131 23.1666 110.597 23.8312 112.776 23.1956C114.589 22.6686 115.673 21.0159 115.673 18.5654L115.67 18.5645Z" fill="black"></path><path d="M75.9486 10.5618C80.0768 10.6407 83.5377 13.2683 84.5013 17.1278C85.3501 20.5209 83.7516 24.1419 80.5661 26.0392C76.5984 28.4064 71.3224 27.2982 68.7621 23.5921C65.4932 18.8577 67.9247 12.4897 73.6294 10.9414C74.3791 10.7371 75.1744 10.6845 75.9486 10.5618ZM75.96 14.473C73.5049 14.4817 71.5706 16.4781 71.5943 18.9778C71.6197 21.5774 73.4795 23.4676 76.0039 23.4598C78.4713 23.4519 80.3723 21.4607 80.3539 18.9006C80.3416 16.4089 78.4073 14.4642 75.9574 14.473H75.96Z" fill="black"></path><path d="M121.641 10.9937C123.082 10.9937 124.454 10.9937 125.826 10.9937C125.91 11.0017 125.994 11.016 126.076 11.0366V11.5627C126.082 14.6234 126.07 17.685 126.1 20.7458C126.117 22.4572 127.05 23.4033 128.794 23.5786C130.345 23.7355 131.745 22.7404 132.053 21.2254C132.154 20.7117 132.206 20.1893 132.208 19.6656C132.223 16.9687 132.215 14.2718 132.215 11.5749V11.0235H136.571C136.578 11.1734 136.592 11.3259 136.592 11.4794C136.592 16.4477 136.595 21.4186 136.6 26.3921C136.6 26.7726 136.529 26.9278 136.102 26.9182C134.962 26.8866 133.822 26.9068 132.682 26.9068H132.212V25.6311C132.093 25.7074 132.036 25.7389 131.983 25.7801C129.714 27.6143 127.217 27.6564 124.661 26.5797C122.9 25.838 122.136 24.2765 121.826 22.4879C121.706 21.7409 121.647 20.9852 121.651 20.2285C121.632 17.3273 121.643 14.4261 121.643 11.525L121.641 10.9937Z" fill="black"></path><path d="M102.088 22.583C100.956 24.8705 99.2824 26.4521 96.7851 27.0211C93.8732 27.6848 91.1488 27.2728 88.7638 25.3869C84.2095 21.7852 84.6321 15.0411 89.5828 11.9892C93.8048 9.39043 99.2201 10.624 101.866 14.7895C101.966 14.9465 102.052 15.113 102.172 15.3226L98.2714 16.856C97.9513 16.4746 97.6743 16.0792 97.3332 15.7496C95.9644 14.4283 94.3519 14.1714 92.6035 14.8123C91.0524 15.3813 90.051 16.9928 89.973 18.7121C89.8572 21.2135 91.4119 22.7548 92.913 23.2353C93.8558 23.548 94.8748 23.5442 95.8153 23.2247C96.7557 22.9052 97.5661 22.2874 98.1232 21.4651C98.3038 21.2021 98.4415 21.1267 98.751 21.2547C99.8409 21.7071 100.941 22.1288 102.088 22.583Z" fill="black"></path><path d="M150.841 14.4896C150.841 16.251 150.836 17.9248 150.841 19.5976C150.841 20.3394 150.836 21.0881 150.897 21.8228C151.005 23.1038 151.503 23.5378 152.778 23.5448C153.139 23.5448 153.499 23.5448 153.883 23.5448V27.2158C153.217 27.2447 152.552 27.3131 151.891 27.292C151.047 27.2779 150.205 27.21 149.369 27.0886C147.551 26.7993 146.533 25.5718 146.526 23.7307C146.515 20.8321 146.526 17.9327 146.526 15.0332V14.5133H144.606V10.6862H146.51V6.41113H150.829V10.6503H154.025V14.4896H150.841Z" fill="black"></path><path d="M138.409 10.9604H142.748V26.8692H138.409V10.9604Z" fill="black"></path><path d="M138.117 6.91175C138.119 6.42759 138.265 5.95496 138.536 5.55378C138.807 5.1526 139.191 4.84095 139.64 4.65834C140.088 4.47572 140.581 4.43037 141.055 4.52804C141.529 4.6257 141.964 4.86198 142.303 5.20691C142.643 5.55185 142.873 5.9899 142.963 6.46554C143.054 6.94118 143.001 7.43297 142.812 7.87857C142.622 8.32416 142.305 8.7035 141.9 8.96846C141.495 9.23343 141.02 9.37211 140.536 9.3669C140.216 9.36461 139.899 9.29927 139.604 9.17462C139.31 9.04997 139.042 8.86846 138.818 8.64045C138.593 8.41245 138.416 8.14242 138.295 7.8458C138.175 7.54918 138.115 7.23178 138.117 6.91175Z" fill="#E2504B"></path></svg>