<?xml version="1.0" encoding="UTF-8"?> <svg xmlns="http://www.w3.org/2000/svg" width="55" height="53" viewBox="0 0 55 53" fill="none"><path fill-rule="evenodd" clip-rule="evenodd" d="M7.91406 47.6232V29.0117H16.7669L24.2238 39.7326V29.0117H31.4717V35.4544H39.6062V29.0117H47.0895V47.6232H39.6062V40.0972H31.4717V47.6232H23.0743L14.9662 36.7264V47.6232H7.91406Z" fill="#1E4491"></path><mask id="mask0_908_1837" style="mask-type:luminance" maskUnits="userSpaceOnUse" x="22" y="5" width="12" height="18"><path d="M27.8498 5.38209C27.8025 5.48173 26.6079 8.46351 25.6982 9.92419C24.9612 11.1071 24.2506 12.1788 23.5664 13.3904C22.1892 15.8284 21.5699 19.9783 25.6982 22.9325C24.8193 19.0349 24.5234 16.5884 24.5905 15.0461C25.1471 17.6251 25.9446 20.1044 26.9896 22.482C27.0523 18.2717 27.3559 14.3306 27.8355 10.5899C27.852 10.4892 27.8531 10.4892 27.8674 10.5899C28.3481 14.3306 28.6506 18.2717 28.7133 22.482C29.7583 20.1044 30.5558 17.6251 31.1124 15.0461C31.1795 16.5884 30.8836 19.0349 30.0047 22.9325C34.133 19.9793 33.5137 15.8284 32.1365 13.3904C31.4523 12.1788 30.7417 11.1071 30.0047 9.92419C29.095 8.46351 27.9004 5.48173 27.8531 5.38209C27.8531 5.37785 27.8509 5.37785 27.8509 5.38209" fill="white"></path></mask><g mask="url(#mask0_908_1837)"><path d="M34.1323 5.375H21.5703V22.9297H34.1323V5.375Z" fill="url(#paint0_linear_908_1837)"></path></g><mask id="mask1_908_1837" style="mask-type:luminance" maskUnits="userSpaceOnUse" x="32" y="18" width="13" height="10"><path d="M44.3751 18.7512C44.2926 18.7608 41.9089 19.1731 40.6186 19.1805C39.5736 19.1869 38.6111 19.1657 37.5661 19.2134C35.4662 19.3109 32.5446 20.5119 32.1992 24.1138C34.3882 22.1072 35.86 21.0016 36.8841 20.4568C35.4255 21.769 34.1231 23.1884 32.9813 24.719C35.7302 23.1598 38.3966 21.8475 40.9992 20.7175C41.0707 20.6889 41.0707 20.69 41.0113 20.7366C38.7717 22.4443 36.3363 24.1201 33.6347 25.7546C35.5696 25.4812 37.477 25.0201 39.358 24.3766C38.3856 25.002 36.6894 25.7515 33.8327 26.7012C37.3098 28.0623 39.7617 26.1161 40.8177 24.3639C41.3424 23.4926 41.7659 22.6594 42.2521 21.768C42.8527 20.6666 44.33 18.818 44.3762 18.7512C44.3784 18.7491 44.3784 18.7502 44.3762 18.7512" fill="white"></path></mask><g mask="url(#mask1_908_1837)"><path d="M44.3784 18.75H32.1992V28.0632H44.3784V18.75Z" fill="url(#paint1_linear_908_1837)"></path></g><mask id="mask2_908_1837" style="mask-type:luminance" maskUnits="userSpaceOnUse" x="11" y="18" width="13" height="10"><path d="M11.327 18.7512C11.4095 18.7608 13.7932 19.1731 15.0835 19.1805C16.1285 19.1869 17.0921 19.1657 18.136 19.2134C20.2359 19.3109 23.1575 20.5119 23.504 24.1138C21.315 22.1072 19.8432 21.0016 18.8191 20.4568C20.2777 21.769 21.5801 23.1884 22.7219 24.719C19.973 23.1598 17.3077 21.8475 14.704 20.7175C14.6325 20.6889 14.6325 20.69 14.6919 20.7366C16.9315 22.4443 19.368 24.1201 22.0685 25.7546C20.1336 25.4812 18.2262 25.0201 16.3452 24.3766C17.3176 25.002 19.0138 25.7515 21.8705 26.7012C18.3934 28.0623 15.9415 26.1161 14.8855 24.3639C14.3608 23.4926 13.9373 22.6594 13.45 21.768C12.8494 20.6666 11.3732 18.818 11.3259 18.7512C11.3237 18.7491 11.3237 18.7502 11.3259 18.7512" fill="white"></path></mask><g mask="url(#mask2_908_1837)"><path d="M23.5034 18.75H11.3242V28.0632H23.5034V18.75Z" fill="url(#paint2_linear_908_1837)"></path></g><defs><linearGradient id="paint0_linear_908_1837" x1="27.8513" y1="5.375" x2="27.8513" y2="22.9297" gradientUnits="userSpaceOnUse"><stop stop-color="#1573B8"></stop><stop offset="0.39" stop-color="#29AAE1"></stop><stop offset="1" stop-color="#8FD2F1"></stop></linearGradient><linearGradient id="paint1_linear_908_1837" x1="38.2888" y1="18.75" x2="38.2888" y2="28.0632" gradientUnits="userSpaceOnUse"><stop stop-color="#1573B8"></stop><stop offset="0.39" stop-color="#29AAE1"></stop><stop offset="1" stop-color="#8FD2F1"></stop></linearGradient><linearGradient id="paint2_linear_908_1837" x1="17.4138" y1="28.0632" x2="17.4138" y2="18.75" gradientUnits="userSpaceOnUse"><stop stop-color="#1573B8"></stop><stop offset="0.39" stop-color="#29AAE1"></stop><stop offset="1" stop-color="#8FD2F1"></stop></linearGradient></defs></svg> 